<svg xmlns="http://www.w3.org/2000/svg" xmlns:xlink="http://www.w3.org/1999/xlink" version="1.1" x="0px" y="0px" width="100px" height="100px" viewBox="0 0 100 100" enable-background="new 0 0 100 100" xml:space="preserve">
<g id="Captions">
</g>
<g id="Your_Icon">
	<path fill="#000000" d="M47.882,29.146c4.047,2.172,3.11,15.406,0.811,22.904l10.692,11.375l16.444,18.121   c0,0-3.571,4.97-6.938,1.355C65.52,79.286,54.442,67.87,54.442,67.87L39.574,54.705c0,0-1.581-0.836-1.579-2.655   c0.004-1.817,0.631-14.341,0.164-18.132c0,0,1.047-0.728,2.58,0.182c0,0,0.966-1.931-9.605-7.541L19.62,20.532   c0,0-1.905-1.203-0.929-3.288c0.912-1.945,3.028-1.548,3.723-1.069c0.695,0.48,9.521,4.918,9.521,4.918"/>
	<circle fill="#000000" cx="83.284" cy="75.665" r="6.73"/>
	<path fill="#000000" d="M44.474,63.14c0,0-1.491,3.189-3.493,3.556c-2.002,0.364-23.729-0.487-23.729-0.487   s-0.598-5.769,3.322-5.769c3.919,0,15.678-0.281,15.678-0.281l2.386-2.512L44.474,63.14z"/>
	<path fill="#000000" d="M35.996,44.523v6.071l-2.335,1.854c0,0-2.578,1.726-4.098-0.97c-0.888-2.034,1.289-3.521,1.818-3.951   C31.912,47.097,35.996,44.523,35.996,44.523z"/>
	<path fill="#000000" d="M54.092,31.035c0,0-1.963,1.077-2.659-0.792c-0.447-1.459-1.103-2.558-2.03-3.057l-1.181-0.597   c-0.064-0.032-0.129-0.066-0.188-0.094l-0.577-0.29l2.591-6.729c0,0,2.028-3.971,6.867-0.572c2.192,2.003,2.07,3.721,1.613,6.021   C57.901,28.093,54.092,31.035,54.092,31.035z"/>
</g>
</svg>