<svg xmlns="http://www.w3.org/2000/svg" xmlns:xlink="http://www.w3.org/1999/xlink" version="1.1" id="Layer_1" x="0px" y="0px" width="100px" height="100px" viewBox="0 0 100 100" enable-background="new 0 0 100 100" xml:space="preserve">
<g>
	<path fill="#000000" d="M88.992,73.769L56.928,18.231c-1.429-2.475-4.07-4-6.928-4s-5.498,1.525-6.928,4L11.008,73.769   c-1.43,2.476-1.43,5.524,0,8c1.429,2.476,4.07,4,6.928,4h64.129c2.857,0,5.499-1.524,6.928-4   C90.422,79.293,90.422,76.244,88.992,73.769z M17.936,77.769L50,22.231l32.064,55.537H17.936z"/>
	<path fill="#000000" d="M46,40.706v16.693c0,2.209,1.791,4,4,4s4-1.791,4-4V40.706c0-2.209-1.791-4-4-4S46,38.497,46,40.706z"/>
	<circle fill="#000000" cx="50" cy="68.471" r="4"/>
</g>
</svg>