<svg xmlns="http://www.w3.org/2000/svg" xmlns:xlink="http://www.w3.org/1999/xlink" version="1.1" id="Layer_1" x="0px" y="0px" width="100px" height="100px" viewBox="0 0 100 100" enable-background="new 0 0 100 100" xml:space="preserve">
<g>
	<path fill="#000000" d="M79.242,95.542H21.814V80.993h57.428V95.542L79.242,95.542z M25.814,91.542h49.428v-6.549H25.814V91.542   L25.814,91.542z"/>
</g>
<g>
	<path fill="#000000" d="M79.242,84.993H21.814V32.667c-6.259-1.837-10.646-7.218-10.646-13.332c0-7.722,6.889-14.004,15.357-14.004   c4.763,0,9.128,1.965,12.001,5.273c2.874-3.309,7.239-5.273,12.002-5.273c4.616,0,8.916,1.881,11.801,5.043   c2.884-3.163,7.184-5.043,11.801-5.043c8.468,0,15.356,6.282,15.356,14.004c0,6.016-4.138,11.248-10.244,13.198V84.993   L79.242,84.993z M25.814,80.993h49.428v-51.61l1.58-0.34c5.102-1.096,8.664-5.088,8.664-9.707c0-5.516-5.095-10.004-11.356-10.004   c-4.249,0-8.11,2.07-10.078,5.404l-1.723,2.916l-1.722-2.916c-1.97-3.333-5.831-5.404-10.079-5.404   c-4.341,0-8.362,2.243-10.244,5.715l-1.758,3.245l-1.758-3.245c-1.881-3.472-5.902-5.715-10.243-5.715   c-6.262,0-11.357,4.488-11.357,10.004c0,4.705,3.79,8.822,9.011,9.789l1.636,0.303V80.993L25.814,80.993z"/>
</g>
<g>
	<polygon fill="#000000" points="38.866,83.826 34.866,83.826 34.866,52.907 38.866,52.907 38.866,83.826  "/>
</g>
<g>
	<polygon fill="#000000" points="52.326,82.993 48.327,82.993 48.327,46.981 52.326,46.981 52.326,82.993  "/>
</g>
<g>
	<polygon fill="#000000" points="66.466,82.993 62.466,82.993 62.466,52.073 66.466,52.073 66.466,82.993  "/>
</g>
</svg>