<svg xmlns="http://www.w3.org/2000/svg" xmlns:xlink="http://www.w3.org/1999/xlink" version="1.1" x="0px" y="0px" width="100px" height="100px" viewBox="0 0 100 100" enable-background="new 0 0 100 100" xml:space="preserve">
<g id="Captions">
	<rect x="-192" width="185" height="99"/>
	<rect y="-36" width="100" height="30"/>
	<text transform="matrix(1 0 0 1 66 -19.5)" fill="#000000" font-family="'Helvetica'" font-size="2.4">http://thenounproject.com</text>
	<text transform="matrix(1 0 0 1 7.166 -24.5)"><tspan x="0" y="0" fill="#000000" font-family="'Helvetica-Bold'" font-size="6.1578">The Noun Project</tspan><tspan x="1.12" y="4.8" fill="#000000" font-family="'Helvetica-Bold'" font-size="4">Icon Template</tspan></text>
	<text transform="matrix(1 0 0 1 -178.5 10.5)" fill="#000000" font-family="'Helvetica-Bold'" font-size="6.1578">Reminders</text>
	<line fill="#000000" stroke="#FFFFFF" stroke-miterlimit="10" x1="8" y1="-14.5" x2="18" y2="-14.5"/>
	<line fill="#000000" stroke="#FFFFFF" stroke-miterlimit="10" x1="-179" y1="16.5" x2="-162" y2="16.5"/>
	<g>
		<g>
			<g>
				<rect x="-170.802" y="31.318" fill="#000000" width="8.721" height="8.642"/>
				<path fill="#000000" d="M-164.455,42.312h4.747v-4.703h-4.747V42.312z M-159.266,42.749h-5.63V37.17h5.63V42.749      L-159.266,42.749z M-166.221,44.062h8.279v-8.203h-8.279V44.062L-166.221,44.062z M-157.5,44.5h-9.163v-9.079h9.163V44.5      L-157.5,44.5z"/>
				<polygon fill="#000000" points="-166.149,44.133 -166.292,43.991 -158.013,35.787 -157.871,35.929     "/>
			</g>
		</g>
	</g>
	<rect x="-179" y="58" fill="none" width="35" height="32.5"/>
	<text transform="matrix(1 0 0 1 -179 60.1572)"><tspan x="0" y="0" fill="#000000" font-family="'Helvetica-Bold'" font-size="3">Strokes</tspan><tspan x="0" y="5" fill="#000000" font-family="'Helvetica'" font-size="2.4">Try to keep strokes at 4px</tspan><tspan x="0" y="10" fill="#000000" font-family="'Helvetica'" font-size="2.4">Minimum stroke weight is 2px</tspan><tspan x="0" y="14.5" fill="#000000" font-family="'Helvetica'" font-size="2.4">For thicker strokes use even </tspan><tspan x="0" y="17.5" fill="#000000" font-family="'Helvetica'" font-size="2.4">numbers: 6px, 8px etc.</tspan><tspan x="0" y="22" fill="#000000" font-family="'Helvetica-Bold'" font-size="2.4">Remember to expand strokes </tspan><tspan x="0" y="25" fill="#000000" font-family="'Helvetica-Bold'" font-size="2.4">before saving as an SVG </tspan></text>
	<rect x="-136.5" y="58" fill="none" width="35" height="32.5"/>
	<text transform="matrix(1 0 0 1 -136.5 60.1572)"><tspan x="0" y="0" fill="#000000" font-family="'Helvetica-Bold'" font-size="3">Size</tspan><tspan x="0" y="5" fill="#000000" font-family="'Helvetica'" font-size="2.4">Cannot be wider or taller than </tspan><tspan x="0" y="8.5" fill="#000000" font-family="'Helvetica'" font-size="2.4">100px (artboard size)</tspan><tspan x="0" y="13.5" fill="#000000" font-family="'Helvetica'" font-size="2.4">Scale your icon to fill as much of </tspan><tspan x="0" y="16.5" fill="#000000" font-family="'Helvetica'" font-size="2.4">the artboard as possible</tspan></text>
	<rect x="-94" y="58" fill="none" width="35" height="32.5"/>
	<text transform="matrix(1 0 0 1 -94 60.1572)"><tspan x="0" y="0" fill="#000000" font-family="'Helvetica-Bold'" font-size="3">Ungroup</tspan><tspan x="0" y="5" fill="#000000" font-family="'Helvetica'" font-size="2.4">If your design has more than one </tspan><tspan x="0" y="8" fill="#000000" font-family="'Helvetica'" font-size="2.4">shape, make sure to ungroup</tspan></text>
	<rect x="-50" y="58" fill="none" width="35" height="32.5"/>
	<text transform="matrix(1 0 0 1 -50 60.1572)"><tspan x="0" y="0" fill="#000000" font-family="'Helvetica-Bold'" font-size="3">Save as</tspan><tspan x="0" y="5" fill="#000000" font-family="'Helvetica'" font-size="2.4">Save as .SVG and make sure </tspan><tspan x="0" y="8" fill="#000000" font-family="'Helvetica'" font-size="2.4">&#8220;Use Artboards&#8221; is checked</tspan></text>
	<text transform="matrix(1.0074 0 0 1 -125.542 30.5933)" fill="#000000" font-family="'Helvetica'" font-size="2.5731">100px</text>
	<text transform="matrix(1.0074 0 0 1 -41 39)" fill="#000000" font-family="'Helvetica-Bold'" font-size="5.1462">.SVG</text>
	<rect x="-126.514" y="34.815" fill="#000000" width="10.261" height="10.185"/>
	<rect x="-126.477" y="31.766" fill="#000000" width="0.522" height="2.337"/>
	<rect x="-116.812" y="31.766" fill="#000000" width="0.523" height="2.337"/>
	<rect x="-127" y="32.337" fill="#000000" width="11.233" height="0.572"/>
	<g>
		<rect x="-83.805" y="33.844" fill="#000000" width="10.305" height="10.156"/>
		<rect x="-76.809" y="28.707" fill="#000000" width="3.308" height="3.261"/>
	</g>
	<rect x="-178.5" y="22.5" fill="#000000" stroke="#FFFFFF" stroke-miterlimit="10" width="30" height="30"/>
	<rect x="-136.5" y="22.5" fill="#000000" stroke="#FFFFFF" stroke-miterlimit="10" width="30" height="30"/>
	<rect x="-93.5" y="22.5" fill="#000000" stroke="#FFFFFF" stroke-miterlimit="10" width="30" height="30"/>
	<rect x="-49.5" y="22.5" fill="#000000" stroke="#FFFFFF" stroke-miterlimit="10" width="30" height="30"/>
</g>
<g id="Your_Icon">
	<path d="M50.209,44.759c-13.928,0-24.838-6.483-24.838-14.763V26.57c0-8.278,10.91-14.766,24.841-14.766   c13.925,0,24.835,6.486,24.835,14.766v3.426c0.003,4.191-2.757,8.036-7.771,10.812C62.678,43.355,56.616,44.759,50.209,44.759z    M50.212,16.307c-12.167,0-20.341,5.309-20.341,10.266v3.425c0,4.957,8.171,10.263,20.338,10.263   c5.657,0,10.941-1.201,14.883-3.384c3.469-1.922,5.458-4.431,5.455-6.876v-3.428C70.547,21.614,62.376,16.307,50.212,16.307z"/>
	<path d="M44.549,57.16c-0.979,0-1.969-0.174-2.949-0.583c-1.697-0.706-2.729-1.884-3.555-2.83c-0.466-0.533-0.87-0.993-1.336-1.336   c-0.589-0.437-2.511,0.142-3.779,0.53c-0.91,0.274-1.854,0.562-2.738,0.683c-5.752,0.782-8.125-1.468-9.104-3.485   c-2.697-5.566,0.275-9.168,1.396-10.523l0.268-0.331c0.946-1.254,4.768-4.849,5.521-5.558c0.908-0.848,2.326-0.801,3.183,0.104   c0.851,0.908,0.8,2.332-0.104,3.183c-1.765,1.648-4.482,4.285-5.004,4.978l-0.394,0.489c-1.005,1.215-2.256,2.729-0.817,5.694   c0.48,0.987,1.969,1.33,4.45,0.99c0.604-0.082,1.298-0.308,2.033-0.53c2.262-0.686,5.36-1.635,7.767,0.161   c0.854,0.627,1.485,1.351,2.045,1.986c0.653,0.747,1.17,1.339,1.896,1.641c2.322,0.974,5.656-1.269,8.092-2.896l0.712-0.475   c4.554-2.996,7.667-0.311,9.94,1.652c0.488,0.422,0.992,0.857,1.531,1.263c0.568,0.429,1.135,0.56,1.601,0.388   c0.457-0.17,0.791-0.612,0.914-1.207l0.075-0.36c0.678-3.246,1.381-6.604,4.088-7.714c1.181-0.483,2.357-0.486,3.398-0.486   c0.51-0.003,1.361-0.003,1.563-0.135l0,0c0,0,0.073-0.092,0.146-0.372c0.82-3.155-3.158-5.72-3.199-5.745   c-0.09-0.056-0.178-0.117-0.26-0.188l-1.27-1.062c-0.952-0.797-1.078-2.215-0.281-3.17c0.801-0.949,2.221-1.075,3.17-0.281   l1.163,0.974c1.037,0.688,6.567,4.688,5.03,10.611c-1.014,3.857-4.295,3.863-6.057,3.866c-0.658,0-1.338,0-1.699,0.149   c-0.541,0.41-1.092,3.053-1.391,4.471l-0.074,0.363c-0.441,2.101-1.836,3.781-3.734,4.496c-1.928,0.729-4.072,0.357-5.883-0.998   c-0.625-0.467-1.211-0.971-1.775-1.459c-2.391-2.062-2.943-2.342-4.523-1.299l-0.688,0.457   C51.488,54.891,48.085,57.16,44.549,57.16z"/>
	<path d="M68.738,51.314"/>
	<path d="M50.238,88.193c-12.391,0-22.094-5.688-22.094-12.955V51.273c0-1.241,1.008-2.25,2.25-2.25s2.25,1.009,2.25,2.25v23.965   c0,4,7.226,8.455,17.594,8.455c10.714,0,17.646-4.685,17.646-6.305V45.98c0-1.242,1.009-2.25,2.25-2.25   c1.242,0,2.25,1.008,2.25,2.25v31.408C72.384,83.044,61.828,88.193,50.238,88.193z"/>
	<path d="M52.223,77.34c-0.675,0-1.082-0.035-1.16-0.041c-1.158-0.111-2.039-1.081-2.039-2.24V52.477c0-1.242,1.008-2.25,2.25-2.25   s2.25,1.008,2.25,2.25v20.306c3.1-0.237,9.258-1.4,15.119-6.587c0.93-0.819,2.351-0.737,3.176,0.193   c0.824,0.932,0.738,2.354-0.192,3.176C63.633,76.634,55.248,77.34,52.223,77.34z"/>
	<path d="M51.123,34.379c-6.659,0-11.654-1.988-11.962-2.115c-1.147-0.469-1.699-1.774-1.233-2.927   c0.469-1.153,1.781-1.705,2.928-1.242c0.1,0.038,9.752,3.832,19.342,0.179c1.156-0.447,2.464,0.139,2.902,1.299   c0.445,1.16-0.138,2.461-1.298,2.902C58.078,33.898,54.398,34.379,51.123,34.379z"/>
</g>
</svg>