<svg xmlns="http://www.w3.org/2000/svg" xmlns:xlink="http://www.w3.org/1999/xlink" version="1.1" x="0px" y="0px" width="100px" height="100px" viewBox="0 0 100 100" enable-background="new 0 0 100 100" xml:space="preserve">
<g id="Captions">
</g>
<g id="Your_Icon">
	<g>
		<path fill="#000000" d="M89,3c4.411,0,8,3.589,8,8v78c0,4.411-3.589,8-8,8H11c-4.411,0-8-3.589-8-8V11c0-4.411,3.589-8,8-8H89     M31.466,42.708l2.121-2.121c4.785-4.784,11.146-7.419,17.913-7.419s13.128,2.635,17.913,7.419l2.121,2.121l2.121-2.121    l15.321-15.321l2.121-2.121l-2.121-2.121C78.967,11.013,65.657,5.5,51.5,5.5s-27.467,5.513-37.477,15.523l-2.121,2.121    l2.121,2.121l15.321,15.321L31.466,42.708 M89,0H11C4.925,0,0,4.925,0,11v78c0,6.075,4.925,11,11,11h78c6.075,0,11-4.925,11-11V11    C100,4.925,95.075,0,89,0L89,0z M31.466,38.466L16.145,23.145C25.908,13.381,38.704,8.5,51.5,8.5s25.592,4.881,35.355,14.645    L71.534,38.466c-5.532-5.532-12.783-8.298-20.034-8.298S36.998,32.934,31.466,38.466L31.466,38.466z"/>
	</g>
	<polygon points="50,28 52,16 54,28  "/>
</g>
</svg>